<?xml version="1.0" standalone="no"?>
<!DOCTYPE svg PUBLIC "-//W3C//DTD SVG 20010904//EN"
 "http://www.w3.org/TR/2001/REC-SVG-20010904/DTD/svg10.dtd">
<svg version="1.0" xmlns="http://www.w3.org/2000/svg"
 width="960.000000pt" height="1280.000000pt" viewBox="0 0 960.000000 1280.000000"
 preserveAspectRatio="xMidYMid meet">
<metadata>
Created by potrace 1.15, written by Peter Selinger 2001-2017
</metadata>
<g transform="translate(0.000000,1280.000000) scale(0.100000,-0.100000)"
fill="#000000" stroke="none">
<path d="M3959 12448 c-7 -13 -38 -50 -69 -83 -73 -77 -94 -116 -115 -207 -9
-40 -20 -89 -26 -109 -5 -20 -9 -57 -9 -82 0 -53 -33 -117 -60 -117 -17 0
-100 16 -234 46 l-69 15 -27 -28 c-24 -24 -30 -44 -45 -153 -10 -69 -22 -152
-27 -185 -16 -103 -30 -342 -34 -553 -2 -112 -6 -213 -10 -225 -14 -46 -158
-159 -177 -140 -4 3 -13 0 -21 -6 -21 -17 -62 -7 -164 40 -46 22 -86 39 -88
39 -3 0 -81 37 -172 83 -92 46 -201 99 -242 117 -41 19 -91 44 -110 57 -20 12
-69 34 -110 49 -99 34 -155 28 -272 -29 -82 -39 -88 -44 -88 -72 0 -27 74
-237 99 -281 14 -25 51 -139 51 -158 0 -8 -10 -26 -22 -40 -13 -13 -34 -38
-47 -54 -24 -30 -25 -30 -130 -31 -58 0 -167 -4 -242 -7 -177 -9 -184 -13
-193 -140 -11 -137 -10 -185 2 -231 15 -52 52 -124 82 -154 12 -13 29 -35 38
-49 53 -81 153 -191 423 -468 l159 -163 0 -54 c0 -62 -25 -125 -69 -172 -29
-31 -31 -32 -153 -38 -70 -4 -155 -16 -198 -27 -41 -11 -88 -24 -105 -28 -53
-14 -115 -39 -213 -86 -92 -45 -158 -98 -249 -204 -12 -14 -29 -31 -37 -38
-11 -8 -16 -29 -16 -61 0 -46 2 -50 42 -76 23 -16 74 -60 113 -100 38 -39 88
-84 110 -100 22 -17 49 -37 60 -47 74 -63 68 -51 62 -130 -10 -122 -18 -137
-94 -188 -101 -67 -273 -200 -316 -244 -54 -56 -138 -186 -186 -290 -23 -49
-40 -90 -39 -91 27 -15 140 -111 151 -129 50 -75 281 -146 480 -146 43 0 66
-4 62 -10 -3 -5 0 -10 7 -10 7 0 37 -22 67 -49 50 -45 54 -52 44 -74 -17 -36
-112 -147 -137 -158 -12 -6 -26 -25 -32 -44 -13 -43 0 -76 69 -167 28 -38 30
-38 98 -38 56 0 80 5 127 29 31 15 91 36 132 46 41 9 107 28 145 42 39 13 93
31 120 40 41 12 261 99 340 134 11 5 45 18 75 29 44 16 218 100 462 221 28 14
96 10 131 -7 18 -9 45 -32 61 -50 45 -51 83 -164 56 -164 -5 0 -10 -6 -10 -12
0 -7 -7 -26 -15 -42 -52 -98 -72 -134 -92 -162 -13 -17 -23 -35 -23 -40 0 -5
-10 -25 -23 -44 -13 -19 -32 -55 -42 -80 -11 -25 -22 -47 -26 -50 -3 -3 -18
-32 -33 -65 -15 -33 -54 -112 -87 -176 -32 -64 -64 -141 -70 -170 -6 -30 -16
-74 -22 -99 -14 -59 -16 -690 -2 -707 37 -45 36 -45 99 -41 33 2 69 8 80 13
18 8 18 5 10 -41 -10 -63 -7 -288 5 -328 6 -17 14 -67 19 -111 5 -44 17 -106
26 -138 9 -32 16 -71 16 -86 0 -44 27 -62 75 -50 22 6 58 14 81 19 67 14 140
45 208 89 36 23 69 41 74 41 11 0 145 131 195 190 20 25 69 92 108 150 44 64
79 107 90 108 68 7 161 5 167 -5 4 -6 19 -14 34 -18 15 -4 33 -14 39 -22 19
-22 58 -120 78 -193 45 -164 67 -223 123 -336 56 -115 66 -128 165 -224 l105
-102 44 5 c42 4 43 4 62 -37 11 -22 23 -52 27 -66 4 -14 39 -86 78 -160 101
-194 130 -251 151 -301 11 -24 30 -58 43 -76 13 -17 23 -35 23 -38 0 -4 20
-39 44 -79 62 -100 113 -194 214 -396 49 -96 114 -211 144 -255 31 -44 85
-138 122 -210 102 -202 145 -276 185 -325 58 -70 136 -204 288 -500 29 -58 64
-116 77 -130 12 -14 34 -45 49 -70 14 -25 49 -74 77 -108 28 -35 102 -139 163
-230 62 -92 119 -175 127 -185 17 -20 155 -220 254 -367 35 -53 91 -130 125
-173 34 -42 77 -101 95 -130 55 -85 43 -82 278 -85 l210 -4 -13 24 c-6 12 -26
43 -44 68 -18 25 -34 50 -36 55 -4 9 -146 228 -203 311 -59 86 -222 298 -257
334 -23 23 -401 527 -423 563 -10 18 -42 68 -71 112 -56 85 -135 217 -181 302
-46 82 -101 179 -174 303 -106 181 -165 283 -180 314 -8 16 -25 33 -36 38 -12
6 -30 27 -40 47 -11 20 -39 68 -63 106 -25 39 -62 104 -83 145 -20 41 -56 107
-78 145 -22 39 -63 114 -90 167 -28 54 -66 122 -85 152 -19 30 -35 58 -35 61
0 3 -32 71 -71 153 -39 81 -100 206 -134 278 -35 72 -94 187 -132 255 -38 68
-77 142 -87 164 -31 70 -51 110 -58 115 -15 11 15 35 87 70 22 10 51 25 65 33
14 8 46 24 71 35 l46 20 35 -36 c19 -20 47 -55 63 -77 16 -22 44 -56 61 -75
18 -19 46 -54 62 -76 41 -57 86 -87 109 -75 10 5 36 13 58 18 51 11 80 52 89
130 4 32 11 83 16 113 16 93 29 307 30 480 l0 166 38 35 c67 64 109 80 201 79
47 -1 69 -17 126 -95 17 -22 52 -65 80 -95 78 -85 329 -330 338 -330 5 0 22
-9 38 -21 50 -35 143 -79 169 -79 28 0 59 29 108 101 47 70 65 132 57 198 -12
102 -89 379 -130 468 -8 17 -15 45 -15 61 0 17 -5 32 -11 34 -6 2 9 24 33 50
44 48 123 98 155 98 10 0 65 -23 122 -51 394 -190 373 -184 621 -184 189 0
207 2 232 20 26 19 27 24 28 112 0 198 -29 303 -166 601 -19 41 -34 78 -34 83
0 5 -4 17 -9 27 -30 53 -71 153 -71 169 0 21 66 130 91 149 24 20 91 55 85 45
-3 -5 11 -11 32 -14 20 -2 75 -14 122 -25 141 -34 248 -46 400 -46 140 0 148
1 224 32 104 42 174 95 197 147 l19 42 -46 89 c-25 49 -58 106 -74 126 -31 38
-31 68 -1 68 27 0 207 66 246 90 47 29 65 57 65 100 0 73 -61 224 -115 285
-68 77 -103 112 -139 140 -22 17 -56 44 -75 61 -68 57 -158 123 -202 145 -24
13 -46 26 -49 29 -22 28 -298 190 -462 272 -57 28 -113 60 -124 72 -23 23 -54
103 -54 140 0 32 31 126 42 126 4 0 8 6 8 14 0 13 74 53 155 83 58 21 68 26
195 88 125 61 145 72 235 126 54 33 93 52 215 106 41 18 139 87 194 138 21 20
44 39 51 43 20 11 82 114 89 148 4 17 20 44 36 59 46 44 41 84 -17 146 -90 96
-162 125 -393 159 -30 4 -95 15 -145 24 -49 8 -130 21 -180 27 -120 15 -183
26 -165 28 11 2 9 5 -5 11 -11 4 -29 25 -40 46 -11 22 -23 41 -26 44 -6 6 -29
114 -29 139 0 9 26 43 58 76 107 112 252 314 304 425 9 19 23 71 32 115 15 75
26 123 41 171 5 14 -2 29 -22 51 -27 29 -35 31 -124 38 -58 4 -171 1 -297 -8
l-204 -15 -47 46 c-78 78 -86 95 -72 161 7 31 17 72 22 91 5 19 13 148 16 287
5 197 3 256 -7 268 -16 19 -74 20 -103 1 -12 -8 -40 -19 -62 -25 -22 -5 -84
-26 -138 -46 -55 -19 -104 -35 -110 -35 -7 0 -35 22 -64 48 l-52 47 10 110 c5
61 12 156 15 211 l7 102 -27 17 c-41 27 -134 55 -180 55 -153 -2 -443 -131
-573 -256 -32 -31 -85 -76 -118 -101 -33 -26 -82 -68 -110 -94 -27 -26 -81
-70 -119 -98 -56 -41 -73 -48 -88 -40 -10 6 -28 7 -39 4 -26 -8 -86 12 -126
43 -18 13 -33 21 -33 16 0 -4 -4 -4 -10 2 -9 9 -46 196 -71 364 -15 103 -40
171 -79 219 -17 19 -30 40 -30 44 0 5 -22 34 -50 63 -27 30 -59 72 -71 94 -43
76 -71 64 -150 -59 -34 -53 -74 -114 -90 -137 -15 -22 -42 -67 -60 -100 -17
-32 -48 -79 -68 -104 -21 -25 -47 -61 -58 -80 -36 -58 -57 -70 -123 -70 -61 0
-170 38 -170 59 0 11 -44 114 -62 146 -7 11 -43 80 -80 154 -80 154 -100 183
-223 306 -69 70 -102 95 -140 109 -74 27 -133 54 -140 66 -11 18 -44 11 -56
-12z"/>
</g>
</svg>