<?xml version="1.0" standalone="no"?>
<!DOCTYPE svg PUBLIC "-//W3C//DTD SVG 20010904//EN"
 "http://www.w3.org/TR/2001/REC-SVG-20010904/DTD/svg10.dtd">
<svg version="1.0" xmlns="http://www.w3.org/2000/svg"
 width="780.000000pt" height="1280.000000pt" viewBox="0 0 780.000000 1280.000000"
 preserveAspectRatio="xMidYMid meet">
<metadata>
Created by potrace 1.15, written by Peter Selinger 2001-2017
</metadata>
<g transform="translate(0.000000,1280.000000) scale(0.100000,-0.100000)"
fill="#000000" stroke="none">
<path d="M4055 12619 c-222 -37 -465 -159 -642 -322 -52 -48 -164 -182 -167
-200 -1 -7 -26 -48 -54 -92 -29 -44 -52 -83 -52 -86 0 -3 -6 -6 -12 -7 -7 -1
-30 -5 -50 -8 -33 -5 -50 1 -137 50 -265 152 -479 203 -796 193 -375 -13 -692
-140 -939 -377 -80 -77 -198 -215 -168 -196 7 4 -7 -21 -31 -56 -50 -72 -164
-286 -197 -368 -51 -125 -72 -229 -77 -383 -7 -172 4 -257 52 -403 35 -108 74
-191 130 -279 39 -61 41 -65 22 -65 -32 0 -235 -148 -322 -234 -83 -83 -206
-230 -177 -212 7 4 -16 -37 -52 -91 -137 -210 -241 -440 -281 -623 -26 -118
-31 -366 -10 -491 53 -316 217 -595 460 -778 93 -71 268 -155 385 -186 168
-44 401 -50 554 -15 23 5 46 10 51 10 6 0 10 -67 10 -182 0 -137 5 -204 18
-268 133 -633 631 -1085 1242 -1126 212 -14 521 53 730 159 85 42 213 133 276
194 26 25 49 41 52 36 21 -34 167 -586 226 -853 141 -642 207 -1291 182 -1801
-17 -361 -34 -471 -174 -1138 l-24 -115 -44 41 c-24 22 -94 78 -155 125 l-111
84 19 44 c73 170 109 376 110 625 1 178 -12 298 -48 456 -113 500 -414 912
-796 1088 -185 86 -373 133 -813 206 -520 87 -844 188 -1068 334 -88 58 -162
123 -188 166 l-19 30 0 -27 c0 -34 -13 -36 -27 -5 -10 20 -11 17 -18 -26 -6
-39 -10 -45 -21 -36 -8 6 -14 18 -14 27 0 8 -2 13 -5 11 -2 -3 -11 -72 -19
-154 -81 -813 -13 -1510 185 -1907 73 -147 155 -263 284 -397 207 -217 457
-393 780 -551 336 -164 612 -241 869 -241 183 0 373 41 527 113 l88 40 49 -43
c27 -24 103 -93 168 -154 66 -60 137 -125 158 -143 l38 -33 -107 -502 c-59
-276 -125 -583 -148 -682 -38 -169 -41 -190 -41 -340 0 -141 2 -167 22 -219
49 -132 144 -173 305 -131 122 32 285 140 422 280 84 86 121 147 191 310 288
671 441 1634 394 2476 -16 266 -66 692 -105 879 -5 22 8 41 81 120 47 52 142
168 212 258 69 89 131 161 136 159 176 -67 354 -107 479 -107 442 0 1021 283
1437 700 140 140 220 246 285 377 78 157 138 381 167 628 17 143 17 740 0 890
-39 347 -34 320 -49 291 -17 -32 -33 -34 -33 -4 l0 22 -16 -23 c-54 -76 -222
-191 -372 -255 -199 -84 -384 -132 -817 -211 -137 -25 -255 -48 -262 -50 -6
-2 7 28 28 66 53 93 96 203 122 309 12 47 23 87 26 90 8 6 10 18 21 104 32
248 -15 492 -144 746 l-74 146 57 29 c195 102 407 292 530 473 112 165 210
397 242 572 7 38 16 67 20 64 14 -9 24 114 24 296 -1 200 -14 281 -72 435
-179 482 -640 805 -1148 805 -56 0 -116 5 -133 11 -40 14 -57 57 -55 139 5
189 -35 418 -102 585 -49 120 -75 169 -154 286 -219 327 -553 551 -910 613
-101 17 -328 20 -416 5z m267 -6315 c121 -62 312 -104 510 -111 186 -7 322 10
500 63 11 3 -3 -33 -48 -119 -119 -231 -173 -445 -181 -720 -8 -233 20 -423
86 -591 l28 -74 -114 -128 c-63 -71 -138 -157 -166 -191 -28 -34 -53 -61 -54
-59 -1 1 -36 134 -77 296 -128 507 -276 979 -469 1503 -30 81 -53 147 -50 147
2 0 18 -7 35 -16z"/>
</g>
</svg>