<?xml version="1.0" standalone="no"?>
<!DOCTYPE svg PUBLIC "-//W3C//DTD SVG 20010904//EN"
 "http://www.w3.org/TR/2001/REC-SVG-20010904/DTD/svg10.dtd">
<svg version="1.0" xmlns="http://www.w3.org/2000/svg"
 width="640.000000pt" height="1280.000000pt" viewBox="0 0 640.000000 1280.000000"
 preserveAspectRatio="xMidYMid meet">
<metadata>
Created by potrace 1.15, written by Peter Selinger 2001-2017
</metadata>
<g transform="translate(0.000000,1280.000000) scale(0.100000,-0.100000)"
fill="#000000" stroke="none">
<path d="M3430 12794 c-213 -44 -320 -167 -320 -369 0 -59 20 -166 45 -234 8
-24 14 -45 13 -46 -2 -1 -48 -7 -104 -14 -55 -6 -135 -20 -177 -30 l-77 -18 0
72 c0 285 -126 461 -341 473 -115 7 -227 -24 -369 -100 -324 -173 -556 -483
-537 -715 13 -167 146 -287 381 -344 l85 -21 -28 -57 c-33 -67 -76 -179 -91
-239 l-11 -42 -62 34 c-123 69 -191 89 -302 90 -89 1 -105 -2 -150 -26 -208
-108 -285 -442 -193 -828 56 -236 177 -423 315 -488 76 -36 191 -37 267 -3 71
32 165 101 225 167 29 31 56 53 60 48 4 -5 25 -34 46 -64 21 -30 69 -89 106
-131 l67 -75 -90 -60 c-105 -69 -175 -141 -215 -222 -24 -48 -28 -69 -28 -137
1 -71 5 -88 35 -149 162 -327 813 -563 1121 -406 62 32 116 86 146 148 22 44
28 73 31 145 5 89 5 89 19 56 32 -77 177 -516 223 -674 168 -583 259 -1112
277 -1595 l6 -185 -44 51 c-167 195 -330 221 -463 73 -87 -96 -147 -278 -149
-454 -2 -170 34 -280 114 -348 103 -88 249 -66 440 68 l79 56 -5 -58 c-26
-264 -86 -617 -151 -893 -14 -58 -65 -267 -114 -465 -142 -573 -177 -746 -210
-1045 -15 -136 -16 -531 -1 -640 54 -400 122 -622 406 -1325 214 -529 732
-1735 756 -1759 27 -29 -2 59 -97 291 -349 849 -612 1531 -768 1993 -144 428
-186 656 -187 1015 -1 423 46 684 271 1480 120 426 179 656 219 860 23 115 66
383 76 468 l6 57 71 -65 c154 -143 299 -171 407 -79 97 83 142 206 149 405 5
155 -10 244 -57 337 -97 192 -275 213 -467 56 -30 -24 -56 -44 -58 -44 -3 0
-5 76 -5 168 -1 151 -13 392 -26 497 -3 22 -12 99 -21 170 -60 494 -189 1039
-386 1633 -44 133 -78 245 -76 248 3 2 19 8 35 13 l30 9 7 -104 c15 -222 82
-350 216 -413 76 -36 221 -37 324 -3 252 84 511 293 634 513 71 124 91 259 56
362 -40 118 -182 217 -373 261 -34 8 -65 17 -67 19 -2 2 11 38 31 79 36 78 85
220 85 245 0 8 3 13 8 11 215 -109 296 -135 400 -126 151 14 264 131 318 328
25 91 25 362 0 475 -58 265 -172 457 -316 534 -153 82 -314 36 -487 -137 -41
-40 -76 -72 -77 -70 -80 115 -111 155 -163 209 l-64 66 71 42 c106 63 193 149
235 233 30 61 35 81 35 140 0 235 -283 477 -677 578 -77 20 -289 35 -343 24z"/>
</g>
</svg>
